<?xml version="1.0" standalone="no"?>
<!DOCTYPE svg PUBLIC "-//W3C//DTD SVG 20010904//EN"
 "http://www.w3.org/TR/2001/REC-SVG-20010904/DTD/svg10.dtd">
<svg version="1.0" xmlns="http://www.w3.org/2000/svg"
 width="2048.000000pt" height="2048.000000pt" viewBox="0 0 2048.000000 2048.000000"
 preserveAspectRatio="xMidYMid meet">

<g transform="translate(0.000000,2048.000000) scale(0.100000,-0.100000)"
fill="#0451BE" stroke="none">
<path d="M4930 10776 l0 -1496 290 0 290 0 0 585 0 586 141 -3 140 -3 337
-582 337 -583 338 0 c186 0 336 3 334 8 -2 4 -157 273 -345 597 -187 325 -344
597 -347 606 -5 12 15 28 82 65 66 36 112 73 183 144 174 174 254 356 267 610
14 278 -73 505 -267 700 -127 127 -240 192 -410 237 -57 14 -146 17 -717 20
l-653 4 0 -1495z m1233 964 c72 -27 155 -103 192 -176 28 -54 30 -67 30 -164
0 -101 -1 -108 -34 -168 -40 -74 -93 -124 -171 -161 l-55 -26 -307 -3 -308 -3
0 360 0 361 300 0 c275 0 304 -2 353 -20z"/>
<path d="M12620 11745 l0 -335 -147 0 -148 0 3 -290 3 -290 144 0 145 0 0
-775 0 -775 295 0 295 0 0 775 0 775 190 0 190 0 0 290 0 290 -190 0 -190 0 0
335 0 335 -295 0 -295 0 0 -335z"/>
<path d="M10719 11873 c-80 -71 -325 -285 -544 -478 -220 -192 -408 -358 -417
-367 -17 -17 -18 -69 -18 -883 l0 -865 300 0 300 0 0 748 1 747 260 190 c143
105 266 190 273 189 10 -1 139 -93 449 -322 l87 -64 0 -744 0 -744 295 0 295
0 0 869 0 870 -147 128 c-82 71 -227 198 -323 283 -96 84 -204 179 -240 210
-36 31 -143 125 -238 208 -95 84 -176 152 -180 152 -4 0 -73 -57 -153 -127z"/>
<path d="M8100 11455 c-438 -87 -778 -444 -861 -905 -19 -104 -16 -334 6 -435
88 -413 374 -733 761 -852 83 -25 101 -27 274 -27 164 -1 195 2 270 22 275 76
519 272 665 535 20 37 35 70 33 73 -6 5 -562 134 -581 134 -7 0 -40 -26 -72
-57 -182 -176 -448 -174 -621 4 -46 47 -114 162 -114 192 0 8 197 11 739 11
l738 0 7 53 c11 94 6 273 -9 356 -88 460 -426 814 -855 895 -98 19 -288 19
-380 1z m333 -519 c81 -29 165 -91 218 -161 39 -51 89 -153 89 -180 0 -13 -61
-15 -450 -15 -411 0 -450 1 -450 16 0 32 69 160 112 208 121 139 313 191 481
132z"/>
<path d="M13921 11333 c16 -43 78 -215 138 -383 60 -168 219 -606 352 -975
133 -368 242 -681 242 -695 0 -14 -84 -256 -186 -539 -103 -283 -187 -518
-187 -523 0 -4 139 -8 308 -8 l308 0 141 388 c78 213 235 641 348 952 114 311
285 779 380 1040 95 261 201 550 234 642 34 91 61 169 61 172 0 4 -140 5 -311
4 l-311 -3 -88 -240 c-49 -132 -157 -427 -240 -655 -83 -228 -153 -416 -155
-418 -4 -5 -13 22 -378 1186 l-42 132 -321 0 -322 0 29 -77z"/>
</g>
</svg>
